<?xml version="1.0" encoding="UTF-8"?>
<svg id="Layer_1" data-name="Layer 1" xmlns="http://www.w3.org/2000/svg" viewBox="0 0 1500 900">
  <g>
    <path d="M559.31,431.43h28.74v11.73h5.03v-11.73h28.29c4.48,0,8.12,3.64,8.12,8.12s-3.64,8.12-8.12,8.12h-3.43v5.03h3.43c7.25,0,13.15-5.9,13.15-13.15s-5.9-13.15-13.15-13.15h-62.06c-4.23,0-7.67-3.44-7.67-7.66v-.18c0-4.23,3.44-7.66,7.67-7.66s7.66,3.44,7.66,7.66v4.25h5.03v-4.25c0-7-5.69-12.69-12.69-12.69s-12.69,5.69-12.69,12.69v.18c0,7,5.69,12.69,12.69,12.69Z"/>
    <path d="M621.83,468.57h-28.75v-12.1h-5.03v12.1h-28.29c-4.48,0-8.12-3.64-8.12-8.12s3.64-8.12,8.12-8.12h3.43v-5.03h-3.43c-7.25,0-13.15,5.9-13.15,13.15s5.9,13.15,13.15,13.15h62.06c4.23,0,7.67,3.44,7.67,7.66v.18c0,4.23-3.44,7.66-7.67,7.66s-7.66-3.44-7.66-7.66v-4.25h-5.03v4.25c0,7,5.69,12.69,12.69,12.69s12.69-5.69,12.69-12.69v-.18c0-7-5.69-12.69-12.69-12.69Z"/>
    <path d="M593.08,418.74c0-4.33,3.52-7.85,7.85-7.85s7.85,3.52,7.85,7.85v4.07h5.03v-4.07c0-7.1-5.77-12.87-12.87-12.87s-12.87,5.77-12.87,12.87v4.07h5.03v-4.07Z"/>
    <path d="M588.05,481.26c0,4.33-3.52,7.85-7.85,7.85s-7.85-3.52-7.85-7.85v-4.07h-5.03v4.07c0,7.1,5.77,12.87,12.87,12.87s12.87-5.77,12.87-12.87v-4.07h-5.03v4.07Z"/>
    <polygon points="613.8 465.38 613.8 434.99 608.77 434.99 608.77 447.3 572.36 447.31 572.36 434.99 567.34 434.99 567.34 465.38 572.36 465.38 572.36 452.33 608.77 452.33 608.77 465.38 613.8 465.38"/>
  </g>
  <g>
    <polygon points="702.92 445.56 671.54 445.56 671.54 419.97 663.29 419.97 663.29 480.03 671.54 480.03 671.54 453.6 702.92 453.6 702.92 480.03 711.21 480.03 711.21 419.97 702.92 419.97 702.92 445.56"/>
    <polygon points="831.82 428.01 828.69 419.97 787.98 419.97 787.98 480.03 831.82 480.03 831.82 471.95 796.23 471.95 796.23 452.76 821.36 452.76 821.36 444.76 796.23 444.76 796.23 427.97 831.82 428.01"/>
    <polygon points="866.29 468.47 847.52 419.97 838.98 419.97 862.39 480.03 870.14 480.03 893.55 419.97 884.97 419.97 866.29 468.47"/>
    <polygon points="945.17 419.97 945.17 465.25 910.37 419.97 903.16 419.97 903.16 480.03 911.37 480.03 911.37 434.75 946.18 480.03 953.38 480.03 953.38 419.97 945.17 419.97"/>
    <polygon points="745.95 419.97 720.65 480.03 729.53 480.03 749.63 431.7 769.61 480.03 778.54 480.03 753.24 419.97 745.95 419.97"/>
  </g>
</svg>