<?xml version="1.0" encoding="UTF-8"?>
<svg id="Layer_2" data-name="Layer 2" xmlns="http://www.w3.org/2000/svg" viewBox="0 0 1554.72 337.36">
  <g id="Layer_1-2" data-name="Layer 1">
    <g>
      <g>
        <path fill="#FFFFFF" d="M48.51,97.71h109.87v44.85h19.21v-44.85h108.14c17.11,0,31.03,13.92,31.03,31.03s-13.92,31.03-31.03,31.03h-13.12v19.21h13.12c27.71,0,50.24-22.54,50.24-50.24s-22.54-50.24-50.24-50.24H48.51c-16.15,0-29.3-13.14-29.3-29.29v-.69c0-16.15,13.14-29.3,29.3-29.3s29.29,13.14,29.29,29.3v16.24h19.21v-16.24C97.01,21.76,75.25,0,48.51,0S0,21.76,0,48.51v.69c0,26.75,21.76,48.51,48.51,48.51Z"/>
        <path fill="#FFFFFF" d="M287.46,239.66h-109.88v-46.23h-19.21v46.23H50.24c-17.11,0-31.03-13.92-31.03-31.03s13.92-31.03,31.03-31.03h13.12v-19.21h-13.12c-27.71,0-50.24,22.54-50.24,50.24s22.54,50.24,50.24,50.24h237.22c16.15,0,29.3,13.14,29.3,29.3v.69c0,16.15-13.14,29.3-29.3,29.3s-29.29-13.14-29.29-29.3v-16.24h-19.21v16.24c0,26.75,21.76,48.51,48.5,48.51s48.51-21.76,48.51-48.51v-.69c0-26.75-21.76-48.51-48.51-48.51Z"/>
        <path fill="#FFFFFF" d="M177.59,49.2c0-16.54,13.45-29.99,29.99-29.99s29.99,13.45,29.99,29.99v15.55h19.21v-15.55c0-27.13-22.07-49.2-49.2-49.2s-49.2,22.07-49.2,49.2v15.55h19.21v-15.55Z"/>
        <path fill="#FFFFFF" d="M158.38,288.16c0,16.54-13.45,29.99-29.99,29.99s-29.99-13.45-29.99-29.99v-15.55h-19.21v15.55c0,27.13,22.07,49.2,49.2,49.2s49.2-22.07,49.2-49.2v-15.55h-19.21v15.55Z"/>
        <polygon fill="#FFFFFF" points="256.78 227.46 256.78 111.3 237.57 111.3 237.57 158.38 98.4 158.39 98.4 111.29 79.19 111.29 79.19 227.45 98.4 227.45 98.4 177.6 237.57 177.59 237.57 227.46 256.78 227.46"/>
      </g>
      <g>
        <polygon fill="#FFFFFF" points="597.4 151.71 477.49 151.71 477.49 53.9 445.95 53.9 445.95 283.47 477.49 283.47 477.49 182.45 597.4 182.45 597.4 283.47 629.1 283.47 629.1 53.9 597.4 53.9 597.4 151.71"/>
        <polygon fill="#FFFFFF" points="1090.09 84.63 1078.12 53.9 922.51 53.9 922.51 283.47 1090.09 283.47 1090.09 252.57 954.04 252.57 954.04 179.25 1050.1 179.25 1050.1 148.67 954.04 148.67 954.04 84.47 1090.09 84.63"/>
        <polygon fill="#FFFFFF" points="1221.82 239.28 1150.1 53.9 1117.44 53.9 1206.94 283.47 1236.55 283.47 1326.05 53.9 1293.23 53.9 1221.82 239.28"/>
        <polygon fill="#FFFFFF" points="1523.34 53.9 1523.34 226.95 1390.3 53.9 1362.77 53.9 1362.77 283.47 1394.15 283.47 1394.15 110.41 1527.18 283.47 1554.72 283.47 1554.72 53.9 1523.34 53.9"/>
        <polygon fill="#FFFFFF" points="761.87 53.9 665.18 283.47 699.12 283.47 775.96 98.72 852.33 283.47 886.43 283.47 789.73 53.9 761.87 53.9"/>
      </g>
    </g>
  </g>
</svg>
